<svg width="27" height="31" viewBox="0 0 27 31" fill="none" xmlns="http://www.w3.org/2000/svg">
<path d="M21.185 19.0672C19.4319 17.3574 17.5417 15.9893 15.8629 15.2158C14.0636 14.3892 12.6777 14.3333 11.9591 15.0697L9.88767 17.1948C9.16982 17.9311 9.25661 19.3149 10.1329 21.0929C10.95 22.7503 12.3655 24.606 14.1186 26.3143C16.6598 28.7942 19.8567 30.8462 21.9112 30.8454C22.494 30.8454 22.985 30.6809 23.3432 30.3131L25.4147 28.1887C26.1325 27.4524 26.0457 26.0678 25.1694 24.2906C24.3541 22.632 22.9385 20.7775 21.1847 19.0672L21.185 19.0672ZM15.5364 15.9184C17.1387 16.657 18.9516 17.9712 20.6442 19.6244C22.3368 21.2777 23.6973 23.0534 24.4762 24.6338C25.1754 26.0521 25.3193 27.1791 24.8612 27.649C24.4031 28.1189 23.2734 28.003 21.8379 27.3397C20.2383 26.6012 18.4254 25.2863 16.7328 23.6357C15.0405 21.9852 13.68 20.2046 12.9008 18.6242C12.2024 17.2059 12.0577 16.0754 12.5158 15.609C12.7018 15.4181 12.998 15.3246 13.3831 15.3246C13.943 15.3246 14.6869 15.5251 15.5391 15.9185L15.5364 15.9184ZM18.1575 28.573L19.6771 27.0143V27.014C20.2255 27.3749 20.7972 27.6987 21.3889 27.9833L19.8921 29.5195H19.8919C19.2923 29.2467 18.7135 28.9303 18.1602 28.5731L18.1575 28.573ZM15.9868 26.9646L17.5161 25.3952C18.0182 25.8208 18.5245 26.2142 19.0266 26.5712L17.5023 28.1349C17.0132 27.7897 16.5054 27.3993 15.9895 26.9646H15.9868ZM12.2119 22.9754L13.7378 21.4152C14.107 21.9085 14.5134 22.4037 14.9516 22.8947L13.4224 24.4638C12.9835 23.9639 12.5786 23.4694 12.2119 22.9754ZM10.4431 17.734L11.4887 16.6621C11.5246 17.1527 11.6685 17.7126 11.92 18.3311L10.4443 19.8465C10.0965 18.8595 10.0888 18.0983 10.4443 17.734L10.4431 17.734ZM10.7676 20.623L12.2651 19.0868C12.565 19.6704 12.903 20.2338 13.2769 20.773L11.7573 22.3318V22.332C11.4121 21.8254 11.1016 21.296 10.828 20.7477C10.8086 20.7063 10.7879 20.6643 10.7688 20.6229L10.7676 20.623ZM13.9451 25.0316L15.4758 23.4617C15.7054 23.7055 15.9438 23.9474 16.1908 24.187C16.4378 24.4266 16.6853 24.6589 16.9333 24.8835L15.4033 26.4526C15.1558 26.2307 14.9081 25.999 14.6601 25.7569C14.4121 25.515 14.1742 25.2737 13.9464 25.0331L13.9451 25.0316ZM22.79 29.7708C22.4326 30.1379 21.679 30.1512 20.6795 29.824L22.1551 28.3085C22.78 28.5442 23.3441 28.6744 23.8344 28.6977L22.79 29.7708Z" fill="#06AA65"/>
<path d="M17.3129 23.0394C18.6217 24.3137 19.9692 25.3938 21.1119 26.0814C21.9634 26.5939 22.6273 26.8488 23.1095 26.8488C23.3905 26.8488 23.6136 26.7636 23.7785 26.5932C24.2311 26.1297 24.041 25.261 23.1991 23.9384C22.4827 22.8129 21.3688 21.4915 20.0614 20.2187C18.7541 18.9458 17.4052 17.8643 16.2625 17.1767C14.9185 16.368 14.0459 16.2 13.5932 16.665C13.1405 17.1299 13.3307 17.9971 14.1725 19.3197C14.8916 20.4438 16.0061 21.7651 17.3129 23.0394V23.0394ZM14.1504 17.2049C14.1885 17.1808 14.233 17.1699 14.2778 17.1739C14.8227 17.1739 16.7576 18.077 19.5234 20.7724C22.5868 23.7593 23.4242 25.7844 23.2259 26.0524C22.9627 26.259 20.9175 25.4718 17.8529 22.4842C14.7883 19.4966 13.9521 17.4694 14.1504 17.2049L14.1504 17.2049Z" fill="#06AA65"/>
<path d="M17.4097 8.08537C18.6496 9.18406 19.9736 10.0486 21.1363 10.519C21.819 10.7945 22.3501 10.8998 22.7627 10.8998C23.3468 10.8998 23.6946 10.6932 23.9001 10.4575L25.2207 8.96687C26.3084 7.73801 24.4148 4.87783 22.0803 2.81057C19.7457 0.743815 16.6781 -0.79038 15.5871 0.438488L14.2694 1.92935C13.9181 2.32544 13.6812 3.12453 14.545 4.68057C15.1504 5.77857 16.1684 6.98672 17.4098 8.0854L17.4097 8.08537ZM15.2192 4.30165L16.0002 3.42264C16.1815 3.72426 16.3784 4.01628 16.5899 4.2975L15.7951 5.19301C15.5872 4.90788 15.3963 4.61069 15.2233 4.30291L15.2192 4.30165ZM16.9646 6.58298C16.7201 6.32885 16.4908 6.0725 16.2758 5.81689L17.0763 4.913C17.2918 5.16714 17.5226 5.42201 17.7652 5.67072L16.9646 6.58298ZM17.5157 7.12988L18.3224 6.21912C18.456 6.34582 18.5926 6.47055 18.7323 6.59454C18.872 6.71853 19.0128 6.83834 19.154 6.95618L18.3423 7.86644C18.2011 7.74933 18.0599 7.62879 17.9202 7.50553C17.7802 7.38203 17.6466 7.25607 17.5157 7.13011L17.5157 7.12988ZM18.9574 8.34716L19.7618 7.43861C20.0416 7.65018 20.3225 7.85191 20.6007 8.03175L19.8002 8.93564C19.5188 8.7558 19.2378 8.55948 18.9546 8.34717L18.9574 8.34716ZM20.4778 9.34054L21.2727 8.44503C21.5775 8.62167 21.8912 8.78256 22.2122 8.92722L21.4331 9.80623H21.4333C21.1056 9.67043 20.7865 9.51495 20.4778 9.34052L20.4778 9.34054ZM22.2412 10.0584L22.9867 9.21729C23.2543 9.30364 23.5301 9.36318 23.8098 9.39491L23.3235 9.94599C23.149 10.1369 22.7586 10.1718 22.2378 10.0582L22.2412 10.0584ZM21.5662 3.39069C24.1907 5.71408 25.1255 7.90535 24.6399 8.45296C24.3899 8.73539 23.6645 8.68102 22.747 8.30978C21.6641 7.87163 20.4202 7.0561 19.2435 6.01447C18.0668 4.9731 17.1066 3.83574 16.5403 2.81628C16.0581 1.95031 15.9203 1.23687 16.169 0.956417C16.2743 0.837347 16.4653 0.775349 16.7263 0.775349C17.6653 0.771167 19.5134 1.57217 21.5662 3.39072L21.5662 3.39069ZM14.8493 2.44277L15.3357 1.8917C15.4007 2.16576 15.4932 2.43244 15.6112 2.68808L14.8666 3.53069C14.6917 3.0271 14.6794 2.63518 14.8493 2.44284L14.8493 2.44277Z" fill="#06AA65"/>
<path d="M11.5098 5.32299L9.39236 3.97163C8.62501 3.48181 7.49804 3.78564 6.13484 4.84919C4.89489 5.81354 3.59844 7.31329 2.47979 9.06691C1.36114 10.8208 0.551024 12.629 0.194808 14.1594C-0.195863 15.8436 0.00340494 16.9933 0.771466 17.4831L2.88892 18.8347C3.13297 18.9879 3.41638 19.0669 3.70445 19.062C4.37953 19.062 5.20684 18.69 6.14638 17.9598C7.38633 16.9955 8.68277 15.4952 9.80142 13.7421C11.8914 10.4625 13.2001 6.39802 11.5098 5.32295L11.5098 5.32299ZM9.92548 7.48793L11.3575 8.4014C11.2409 8.90499 11.0901 9.39976 10.9056 9.88244L9.44792 8.95247C9.63489 8.47421 9.79333 7.98516 9.92273 7.48818L9.92548 7.48793ZM9.14636 9.6792L10.6087 10.6119C10.42 11.0451 10.2008 11.4971 9.95086 11.9613L8.48513 11.0264C8.72278 10.5789 8.94518 10.127 9.14371 9.6792H9.14636ZM11.4919 7.56937L10.092 6.67385C10.1665 6.2416 10.1835 5.8017 10.1432 5.36506L11.093 5.97125C11.4333 6.19168 11.5696 6.75995 11.4918 7.56937H11.4919ZM0.952773 14.3347C1.28834 12.8881 2.06381 11.166 3.13642 9.48377C4.20903 7.80151 5.44477 6.37363 6.61506 5.46016C7.39765 4.84906 8.09409 4.52189 8.57973 4.52189V4.52213C8.71996 4.51746 8.85846 4.55313 8.97926 4.62472C9.90085 5.21294 9.32909 8.37474 7.03475 11.9713C5.96213 13.6522 4.7264 15.0815 3.55535 15.995C2.51788 16.8002 1.63395 17.1143 1.19039 16.8305C0.746816 16.5468 0.653089 15.6127 0.94929 14.3349L0.952773 14.3347ZM7.30683 15.7813L5.84992 14.8521C6.16875 14.487 6.48438 14.0944 6.79166 13.681L8.25469 14.6144C7.94126 15.0338 7.62363 15.4223 7.30337 15.7847L7.30683 15.7813ZM3.3115 18.1777L2.35817 17.5696C2.77099 17.4227 3.16243 17.2225 3.52305 16.9737L4.91032 17.8663C4.21262 18.2742 3.63793 18.3933 3.30602 18.1812L3.3115 18.1777ZM5.66809 17.3462L5.60757 17.3925L4.18164 16.4825C4.5792 16.1565 4.95686 15.8069 5.31257 15.4354L6.76332 16.3605V16.3607C6.41988 16.7125 6.05404 17.0417 5.66803 17.3462L5.66809 17.3462ZM8.70247 13.9908L7.23869 13.0559C7.38876 12.8382 7.53662 12.6156 7.68226 12.3878C7.8279 12.16 7.96739 11.9317 8.10098 11.7031L9.56627 12.638C9.43317 12.8638 9.2932 13.0919 9.14681 13.3219C9.00043 13.5522 8.85282 13.7751 8.70448 13.9911L8.70247 13.9908Z" fill="#06AA65"/>
<path d="M26.7635 16.1116V16.0902V16.0722V16.0542V16.0545C26.7638 16.0474 26.7638 16.0402 26.7635 16.0331V16.0173C26.7635 16.0097 26.7635 16.0021 26.7593 15.9947V15.9945C26.7598 15.9927 26.7598 15.9908 26.7593 15.989V15.9787C26.7593 15.9753 26.7559 15.9649 26.7539 15.9573L26.7478 15.9401C26.7458 15.9342 26.7436 15.9283 26.7409 15.9229L26.7325 15.9037L26.7249 15.8892C26.7215 15.883 26.718 15.8769 26.7138 15.8705L26.7055 15.8567L26.6937 15.8402L26.6819 15.8257L26.6708 15.8134H26.6713C26.6664 15.8072 26.6609 15.8016 26.6553 15.7962L26.6469 15.7885H26.6472C26.6403 15.7819 26.6331 15.7757 26.6258 15.7698L26.6203 15.7657C26.612 15.759 26.6031 15.7526 26.594 15.7472C26.5844 15.7411 26.5741 15.7354 26.5638 15.73C26.5532 15.7243 26.5424 15.7197 26.5313 15.7155C26.521 15.711 26.5101 15.7074 26.4991 15.7044H26.4941C26.4873 15.7019 26.4801 15.7 26.4727 15.6983C24.7012 15.3105 24.6798 12.5296 24.6798 12.489V12.4668C24.68 12.4617 24.68 12.4563 24.6798 12.4511C24.6798 12.4415 24.6798 12.4319 24.6756 12.4216C24.6714 12.4112 24.6756 12.4162 24.6756 12.4132C24.6756 12.4105 24.6702 12.3898 24.6667 12.3788C24.6448 12.3072 24.6023 12.2435 24.5447 12.1955L24.5191 12.1763L24.5149 12.1728L24.4923 12.1591L24.4827 12.1537L24.4635 12.1441L24.449 12.1372L24.4333 12.131L24.4133 12.1241L24.3995 12.1207L24.3993 12.1204C24.3917 12.118 24.3838 12.1158 24.3759 12.1143H24.3629L24.338 12.1101H24.2605L24.233 12.1143H24.2219L24.1951 12.1212H24.1855L24.1599 12.13L24.1496 12.1342L24.1282 12.1438L24.1159 12.15L24.0994 12.1596L24.0837 12.1699L24.0726 12.1783H24.0721C24.0657 12.1824 24.0596 12.1871 24.0536 12.192L24.046 12.1989L24.0254 12.2176C24.0256 12.2186 24.0256 12.2198 24.0254 12.2211L24.004 12.2452C23.9808 12.2735 23.9619 12.305 23.9476 12.3387L23.9353 12.3724V12.3773H23.9351C23.9316 12.3879 23.9289 12.3987 23.927 12.4098C23.9265 12.413 23.9265 12.4162 23.927 12.4194C23.927 12.4282 23.9235 12.438 23.922 12.4476C23.9218 12.4528 23.9218 12.4582 23.922 12.4634V12.4855C23.922 12.5288 23.9014 15.3098 22.1414 15.6929L22.118 15.6997C22.0585 15.7162 22.0041 15.7472 21.9596 15.7898L21.9382 15.8119L21.932 15.8196C21.9264 15.8259 21.921 15.8326 21.916 15.8395L21.9077 15.8513L21.8959 15.8692L21.8875 15.8845C21.8841 15.8899 21.8814 15.8963 21.8787 15.9017L21.8789 15.9015C21.8759 15.9071 21.8735 15.9128 21.8713 15.9187C21.8713 15.9248 21.8659 15.931 21.8636 15.9374H21.8639C21.8617 15.9428 21.8597 15.9482 21.8582 15.9539L21.8521 15.9753V15.9856C21.8523 15.9873 21.8523 15.9893 21.8521 15.991L21.8479 16.0137V16.0294V16.0508V16.0688V16.0867V16.1081V16.1234L21.8521 16.1468C21.8523 16.1482 21.8523 16.15 21.8521 16.1514V16.1563C21.8563 16.176 21.8622 16.1955 21.87 16.2142C21.8698 16.2166 21.8698 16.2193 21.87 16.2218C21.8772 16.2385 21.8855 16.255 21.8949 16.2707L21.8991 16.2769H21.8988C21.9089 16.2929 21.9202 16.3081 21.9328 16.3224L21.9404 16.3308L21.9402 16.3305C21.9527 16.3443 21.9665 16.3569 21.981 16.3684L21.9886 16.3746L21.9884 16.3748C22.0036 16.3866 22.0199 16.3974 22.0366 16.407H22.04C22.0563 16.4159 22.0732 16.4238 22.0905 16.4304H22.0993C22.1133 16.4356 22.1276 16.4398 22.1421 16.443C23.9021 16.8287 23.9228 19.6067 23.9228 19.6503V19.6537V19.6764C23.9223 19.6815 23.9223 19.6864 23.9228 19.6916C23.9228 19.7019 23.9228 19.7115 23.9277 19.7211H23.9274C23.9272 19.7238 23.9272 19.7265 23.9274 19.7295C23.9299 19.7413 23.9329 19.7531 23.9365 19.7644C23.9589 19.836 24.0015 19.8997 24.0591 19.9477L24.0846 19.9669H24.0888V19.9672C24.0962 19.9723 24.1041 19.977 24.1122 19.9814L24.1211 19.9868L24.1402 19.9957L24.1548 20.0033L24.1712 20.0087L24.1904 20.0164L24.2042 20.0198L24.2276 20.0252L24.2278 20.0257C24.2323 20.0259 24.2367 20.0259 24.2409 20.0257C24.2492 20.0257 24.2574 20.0291 24.2665 20.0299H24.3277L24.3353 20.0296L24.3622 20.0255V20.0257C24.3658 20.0259 24.3695 20.0259 24.3732 20.0257C24.3826 20.024 24.3917 20.0218 24.4008 20.0188H24.4104L24.4352 20.0092H24.4463L24.467 19.9989L24.48 19.9927L24.5115 19.9735L24.5233 19.9647L24.542 19.9509L24.5496 19.9448L24.5695 19.9261L24.573 19.9219V19.9216C24.5806 19.914 24.5877 19.9059 24.5944 19.8975C24.618 19.8692 24.637 19.8373 24.6507 19.8031C24.6557 19.7917 24.6596 19.7804 24.6633 19.7686V19.7644C24.6633 19.7603 24.6694 19.743 24.6716 19.7315C24.6736 19.7197 24.6716 19.7253 24.6716 19.7226C24.6716 19.7199 24.6751 19.7034 24.6758 19.6936H24.6756C24.6761 19.6884 24.6761 19.6835 24.6756 19.6783V19.6557V19.6523C24.6756 19.609 24.6962 16.828 26.4562 16.4449C26.4707 16.442 26.485 16.4378 26.499 16.4326H26.5079C26.5253 16.426 26.5423 16.4181 26.5588 16.4093C26.5755 16.3994 26.5918 16.3886 26.607 16.3768L26.6146 16.3706C26.6292 16.3588 26.6427 16.3463 26.6552 16.3327L26.6621 16.3244C26.6747 16.3101 26.6862 16.2949 26.6966 16.2789L26.7 16.2727C26.7096 16.257 26.7182 16.2407 26.7256 16.2238C26.7263 16.2213 26.7276 16.2186 26.729 16.2164C26.7364 16.1974 26.7423 16.1782 26.747 16.1583C26.7472 16.1568 26.7472 16.1551 26.747 16.1536C26.7472 16.1519 26.7472 16.1504 26.747 16.1487C26.747 16.1411 26.747 16.133 26.7512 16.1254L26.7635 16.1116ZM24.2933 17.5864C24.0714 17.014 23.7223 16.4479 23.1739 16.071C23.725 15.6948 24.0694 15.1288 24.2933 14.5556C24.5152 15.1281 24.8635 15.6941 25.4119 16.071C24.8638 16.4506 24.5152 17.0167 24.2933 17.5891V17.5864Z" fill="#06AA65"/>
<path d="M6.90797 25.3367V25.3153V25.3001V25.3003C6.90699 25.2924 6.90551 25.2846 6.90379 25.2769C6.90428 25.2752 6.90428 25.2737 6.90379 25.272V25.2609C6.90379 25.2575 6.90034 25.2472 6.89837 25.2403L6.89222 25.2223V25.2226C6.89001 25.2167 6.8878 25.2108 6.88534 25.2053C6.88534 25.1992 6.87992 25.1923 6.87648 25.1862L6.86959 25.1724L6.86934 25.1721C6.86615 25.1655 6.86246 25.1591 6.85827 25.1529L6.84991 25.1399L6.83761 25.1227L6.82728 25.1089L6.81498 25.0951L6.80046 25.0799L6.79013 25.0703L6.77143 25.0538L6.76307 25.0476L6.76331 25.0474C6.75593 25.0415 6.74806 25.0358 6.73994 25.0309L6.73379 25.0267C6.72543 25.0213 6.71657 25.0164 6.70771 25.0115H6.70156L6.67401 24.9984H6.66638L6.63957 24.9896L6.62923 24.9861L6.61128 24.9812C4.55013 24.5293 4.52947 21.2974 4.52947 21.2561C4.52971 21.2489 4.52971 21.2418 4.52947 21.2347C4.52971 21.229 4.52971 21.2234 4.52947 21.2175C4.52947 21.2086 4.52947 21.2002 4.52529 21.1914C4.5211 21.1825 4.52529 21.1837 4.52529 21.1796L4.51692 21.1471V21.1429V21.1432C4.47584 21.0098 4.36612 20.9089 4.22982 20.8794H4.22564C4.21678 20.8794 4.20694 20.8794 4.19808 20.8752H4.08516L4.05835 20.8794H4.05146L4.0212 20.8871L4.02095 20.8868C3.91344 20.9215 3.8266 21.0012 3.78256 21.1053C3.77788 21.1163 3.7737 21.1274 3.77026 21.139V21.1451C3.77026 21.1471 3.76485 21.1651 3.76263 21.1754V21.1756C3.76239 21.1796 3.76239 21.1838 3.76263 21.1879C3.76263 21.1963 3.76263 21.2052 3.75845 21.2135C3.7582 21.2192 3.7582 21.2248 3.75845 21.2307C3.7582 21.2379 3.7582 21.2448 3.75845 21.2519C3.75845 21.2932 3.73778 24.5254 1.67664 24.977L1.65598 24.9832H1.65056L1.60382 24.9972C1.56938 25.0107 1.53715 25.0294 1.50812 25.0523C1.49927 25.06 1.49016 25.0668 1.48205 25.075C1.47442 25.0818 1.46827 25.0887 1.46138 25.0964L1.45449 25.1047H1.45425C1.44883 25.1109 1.44391 25.1173 1.43924 25.1239L1.43038 25.1362C1.43038 25.1416 1.42276 25.1473 1.41931 25.1534L1.41046 25.1687C1.41046 25.1748 1.40431 25.1805 1.4016 25.1867H1.40135C1.39914 25.1923 1.39643 25.1977 1.39373 25.2031C1.39373 25.2093 1.38881 25.2154 1.38684 25.2218C1.38462 25.2272 1.3829 25.2327 1.38143 25.2383C1.38143 25.2459 1.37724 25.2528 1.37528 25.2605C1.37331 25.2681 1.37528 25.2666 1.37528 25.2708H1.37503C1.37478 25.2723 1.37478 25.274 1.37503 25.2755C1.37331 25.2833 1.37208 25.291 1.37109 25.2988V25.3141V25.3355V25.3535V25.3714V25.3928V25.4081V25.4078C1.37208 25.4157 1.37331 25.4236 1.37503 25.4312C1.37478 25.4327 1.37478 25.4344 1.37503 25.4361V25.4415C1.37995 25.4612 1.38586 25.4804 1.39299 25.4993C1.39447 25.5016 1.3957 25.5038 1.39643 25.5062C1.40381 25.5232 1.41218 25.5394 1.42202 25.5552V25.5621C1.43235 25.5778 1.44392 25.5926 1.45646 25.6068L1.46335 25.6152C1.4759 25.6287 1.48967 25.6418 1.50394 25.6536L1.51157 25.659V25.6592C1.52707 25.6713 1.54331 25.6821 1.56053 25.6915C1.57652 25.7003 1.59349 25.708 1.61071 25.7144L1.61957 25.7178C1.63359 25.7227 1.64786 25.7267 1.66238 25.7301C3.72353 26.182 3.74418 29.4139 3.74418 29.4552V29.4587V29.4794V29.4796C3.74369 29.4853 3.74369 29.4909 3.74418 29.4968C3.74418 29.5057 3.74418 29.5148 3.74837 29.5229H3.74812C3.74787 29.5268 3.74787 29.5308 3.74812 29.5347C3.74812 29.5458 3.75304 29.5561 3.75575 29.5672C3.75845 29.5783 3.75575 29.5672 3.75575 29.5714V29.5711C3.79708 29.7045 3.90729 29.8053 4.04383 29.8349C4.05269 29.8349 4.06253 29.8349 4.07212 29.839H4.17275L4.19956 29.8349H4.20571L4.23671 29.8272V29.8275C4.34422 29.7928 4.43131 29.7131 4.47485 29.609C4.47977 29.5979 4.48395 29.5869 4.4874 29.5753C4.48764 29.5731 4.48764 29.5711 4.4874 29.5691C4.49084 29.5591 4.49355 29.549 4.49552 29.5386V29.5263C4.49773 29.518 4.49896 29.5094 4.4997 29.5008C4.50019 29.4951 4.50019 29.4894 4.4997 29.4835V29.4629V29.4594C4.4997 29.4181 4.52036 26.1859 6.5815 25.7343C6.59577 25.7308 6.61004 25.7267 6.62406 25.722L6.63292 25.7185H6.63317C6.65039 25.7121 6.66712 25.7045 6.68335 25.6957H6.6868C6.70377 25.6863 6.72001 25.6755 6.73502 25.6634L6.74338 25.658V25.6578C6.75765 25.646 6.77118 25.6329 6.78398 25.6191L6.79086 25.6108V25.611C6.80341 25.5968 6.81473 25.5818 6.82531 25.5663V25.5594C6.83515 25.5436 6.84351 25.5274 6.85089 25.5104C6.85163 25.5079 6.85286 25.5057 6.85434 25.5035C6.86147 25.4846 6.86737 25.4654 6.87205 25.4457V25.4403V25.44C6.87254 25.4386 6.87254 25.4368 6.87205 25.4354C6.87402 25.4275 6.87525 25.4199 6.87623 25.412V25.3967V25.3753V25.3574C6.87623 25.3512 6.90797 25.3416 6.90797 25.3367H6.90797ZM4.1354 27.2468C3.87979 26.5304 3.4554 25.8056 2.75229 25.3544C3.45565 24.9032 3.88001 24.1784 4.1354 23.4621C4.39027 24.1784 4.81464 24.9032 5.518 25.3544C4.81388 25.8059 4.38952 26.5306 4.13464 27.247L4.1354 27.2468Z" fill="#06AA65"/>
</svg>
