<svg width="24" height="25" viewBox="0 0 24 25" fill="none" xmlns="http://www.w3.org/2000/svg">
<path d="M23.663 22.5919L19.2137 18.1752C20.9408 16.0202 21.7771 13.2848 21.5508 10.5315C21.3245 7.77826 20.0528 5.21641 17.997 3.37274C15.9412 1.52907 13.2578 0.543715 10.4983 0.61928C7.73893 0.694845 5.11331 1.82559 3.16137 3.77901C1.20944 5.73243 0.0795504 8.36004 0.00404275 11.1216C-0.0714649 13.8831 0.913145 16.5686 2.75542 18.6259C4.59769 20.6832 7.15759 21.956 9.90875 22.1824C12.6599 22.4089 15.3932 21.5719 17.5466 19.8435L21.96 24.2602C22.0715 24.3727 22.2042 24.462 22.3503 24.5229C22.4964 24.5839 22.6532 24.6152 22.8115 24.6152C22.9698 24.6152 23.1266 24.5839 23.2727 24.5229C23.4189 24.462 23.5515 24.3727 23.663 24.2602C23.8792 24.0364 24 23.7373 24 23.4261C24 23.1148 23.8792 22.8157 23.663 22.5919ZM10.8186 19.8435C9.15827 19.8435 7.53518 19.3508 6.15463 18.4276C4.77408 17.5044 3.69807 16.1923 3.06267 14.6572C2.42727 13.122 2.26102 11.4328 2.58495 9.80307C2.90887 8.17336 3.70842 6.67638 4.88248 5.50142C6.05654 4.32647 7.55239 3.52631 9.18086 3.20215C10.8093 2.87798 12.4973 3.04435 14.0313 3.68023C15.5653 4.31611 16.8764 5.39294 17.7988 6.77454C18.7213 8.15614 19.2137 9.78047 19.2137 11.4421C19.2137 13.6703 18.3292 15.8072 16.7548 17.3828C15.1804 18.9583 13.0451 19.8435 10.8186 19.8435Z" fill="#808080"/>
</svg>
